<?xml version="1.0" encoding="UTF-8"?><svg id="Layer_2" xmlns="http://www.w3.org/2000/svg" viewBox="0 0 555.3 44.7"><g id="Layer_1-2"><path d="m0,1.32h29.7v6.06H7.56v11.46h21.3v6.06H7.56v12.72h22.62v6.06H0V1.32Z"/><path d="m37.14,1.32h10.14l20.88,34.98V1.32h6.78v42.36h-10.32L43.92,8.76v34.92h-6.78V1.32Z"/><path d="m81.48,22.62c0-10.98,6.42-22.32,21.18-22.32s20.94,11.34,20.94,22.32-6.42,22.08-20.94,22.08-21.18-10.98-21.18-22.08Zm34.5,0c0-7.98-4.02-16.26-13.32-16.26s-13.56,8.28-13.56,16.26,4.08,16.02,13.56,16.02,13.32-8.04,13.32-16.02Z"/><path d="m129.78,1.32h7.56v27.12c0,6.54,4.08,10.2,10.14,10.2s10.02-3.42,10.02-10.2V1.32h7.56v27.12c0,11.04-7.68,16.26-17.58,16.26-10.74,0-17.7-6-17.7-16.26V1.32Z"/><path d="m204.12,38.52c-2.58,3.84-6.72,6.18-12.54,6.18-11.52,0-20.34-9.24-20.34-22.2S179.58.3,192.24.3c8.1,0,14.82,3.84,18.36,12l-7.38,1.74c-2.34-5.04-6.18-7.68-10.98-7.68-8.16,0-13.38,7.26-13.38,16.14s5.34,16.14,13.26,16.14c5.04,0,11.4-2.88,11.88-12.72h-13.32v-6.06h20.46v23.82h-7.02v-5.16h0Z"/><path d="m218.52,1.32h7.56v17.52h20.64V1.32h7.56v42.36h-7.56v-18.78h-20.64v18.78h-7.56V1.32Z"/><path d="m285.66,28.74c.18,6.48,4.8,9.6,10.62,9.6s9.9-3.12,9.9-6.72c0-4.02-3.18-5.16-7.44-6.12l-5.22-1.14c-7.08-1.44-14.16-3.24-14.16-12.06,0-7.68,7.32-12.3,16.68-12.3,11.16,0,15.42,6.12,16.74,12.42l-7.44,1.5c-.9-5.46-4.5-7.86-9.3-7.86-5.1,0-9.18,1.98-9.18,6.24,0,3.66,4.08,4.68,7.62,5.46l6.36,1.38c5.52,1.32,13.02,3.42,13.02,11.88,0,7.68-6.72,13.38-17.82,13.38-9.06,0-16.26-4.38-18-14.16l7.62-1.5Z"/><path d="m330.3,23.94l-16.62-22.92h8.76l11.64,17.22,11.76-17.22h8.46l-16.62,22.92v19.44h-7.38v-19.44Z"/><path d="m361.8,28.74c.18,6.48,4.8,9.6,10.62,9.6s9.9-3.12,9.9-6.72c0-4.02-3.18-5.16-7.44-6.12l-5.22-1.14c-7.08-1.44-14.16-3.24-14.16-12.06,0-7.68,7.32-12.3,16.68-12.3,11.16,0,15.42,6.12,16.74,12.42l-7.44,1.5c-.9-5.46-4.5-7.86-9.3-7.86-5.1,0-9.18,1.98-9.18,6.24,0,3.66,4.08,4.68,7.62,5.46l6.36,1.38c5.52,1.32,13.02,3.42,13.02,11.88,0,7.68-6.72,13.38-17.82,13.38-9.06,0-16.26-4.38-18-14.16l7.62-1.5Z"/><path d="m404.76,7.08h-13.26V1.02h34.08v6.06h-13.32v36.3h-7.5V7.08Z"/><path d="m430.56,1.02h29.7v6.06h-22.14v11.46h21.3v6.06h-21.3v12.72h22.62v6.06h-30.18V1.02Z"/><path d="m467.7,1.02h11.22l11.82,34.8,11.76-34.8h11.16v42.36h-6.96V8.7l-11.64,34.68h-8.64l-11.7-34.62v34.62h-7.02V1.02Z"/><path d="m527.1,28.74c.18,6.48,4.8,9.6,10.62,9.6s9.9-3.12,9.9-6.72c0-4.02-3.18-5.16-7.44-6.12l-5.22-1.14c-7.08-1.44-14.16-3.24-14.16-12.06,0-7.68,7.32-12.3,16.68-12.3,11.16,0,15.42,6.12,16.74,12.42l-7.44,1.5c-.9-5.46-4.5-7.86-9.3-7.86-5.1,0-9.18,1.98-9.18,6.24,0,3.66,4.08,4.68,7.62,5.46l6.36,1.38c5.52,1.32,13.02,3.42,13.02,11.88,0,7.68-6.72,13.38-17.82,13.38-9.06,0-16.26-4.38-18-14.16l7.62-1.5Z"/></g></svg>